<svg width="2018" height="434" viewBox="0 0 2018 434" fill="none" xmlns="http://www.w3.org/2000/svg">
<path d="M230.7 255.6C230.7 259.2 228.8 261 225 261H208.2V324.9C201 326.9 193.9 329.3 186.9 332.1C179.9 334.9 172.9 337.7 165.9 340.5C159.1 343.5 152 345.4 144.6 346.2C137.2 347 129.8 347.4 122.4 347.4C116.2 347.4 109.3 346.7 101.7 345.3C94.3 343.9 87 341.9 79.8 339.3C72.6 336.5 66.4 333.4 61.2 330C45.8 319.6 34.4 306.4 27 290.4C19.8 274.2 16.2 257.1 16.2 239.1C16.2 223.3 18.7 208.6 23.7 195C28.7 181.2 35.9 169.1 45.3 158.7C54.7 148.3 65.9 140.2 78.9 134.4C92.1 128.6 106.8 125.7 123 125.7C134.6 125.7 146.3 127.4 158.1 130.8C160.1 131.4 163 132.3 166.8 133.5C170.6 134.7 174.3 135.8 177.9 136.8C181.5 137.8 184.1 138.3 185.7 138.3C189.7 138.3 192.4 137.6 193.8 136.2C195.4 134.6 196.8 133.1 198 131.7C199.4 130.3 201.6 129.6 204.6 129.6C207.4 129.6 208.9 130.7 209.1 132.9C209.5 135.3 209.6 137.8 209.4 140.4C209.4 143 209.5 145.5 209.7 147.9C209.9 155.1 210.1 162.4 210.3 169.8C210.5 177 210.6 184.2 210.6 191.4C210.6 193.2 209.6 194.6 207.6 195.6C205.8 196.4 204.2 196.8 202.8 196.8C201.4 196.8 200 196.7 198.6 196.5C197.4 196.3 196.3 195.6 195.3 194.4C195.1 193.8 194.6 192.6 193.8 190.8C193 188.8 192.2 186.8 191.4 184.8C190.6 182.6 190 181.1 189.6 180.3C187 174.5 183.7 169 179.7 163.8C175.9 158.6 171.4 154 166.2 150C161.2 146 154.6 142.7 146.4 140.1C138.2 137.3 130.8 135.9 124.2 135.9C111 135.9 99.8 139.2 90.6 145.8C81.6 152.2 74.3 160.6 68.7 171C63.1 181.4 59 192.6 56.4 204.6C53.8 216.4 52.5 227.8 52.5 238.8C52.5 250.2 53.8 261.5 56.4 272.7C59.2 283.9 63.5 294.1 69.3 303.3C75.1 312.5 82.6 319.9 91.8 325.5C101.2 330.9 112.5 333.6 125.7 333.6C129.5 333.6 134.1 333.2 139.5 332.4C145.1 331.6 150.5 330.2 155.7 328.2C161.1 326.2 165.6 323.6 169.2 320.4C172.8 317 174.6 312.8 174.6 307.8V268.5C174.6 265.7 173.4 263.9 171 263.1C168.6 262.1 166.3 261.6 164.1 261.6C160.9 261.6 157.8 261.8 154.8 262.2C151.8 262.4 148.8 262.5 145.8 262.5C144.2 262.5 142.8 261.9 141.6 260.7C140.6 259.5 140.1 258.2 140.1 256.8C140.1 253 141.9 251.1 145.5 251.1C148.9 251.1 152.3 251.2 155.7 251.4C159.3 251.4 162.8 251.4 166.2 251.4C172.8 251.4 179.4 251.4 186 251.4C192.6 251.4 199.2 251.3 205.8 251.1C209 250.9 212.2 250.7 215.4 250.5C218.8 250.3 222.1 250.2 225.3 250.2C226.5 250.2 227.7 250.8 228.9 252C230.1 253.2 230.7 254.4 230.7 255.6ZM340.875 313.2C340.475 304.4 340.175 295.5 339.975 286.5C339.975 277.5 339.775 268.6 339.375 259.8H336.675C330.475 259.8 323.775 260.8 316.575 262.8C309.375 264.6 302.575 267.4 296.175 271.2C289.775 275 284.475 279.7 280.275 285.3C276.275 290.9 274.275 297.3 274.275 304.5C274.275 313.3 276.575 320.3 281.175 325.5C285.975 330.5 292.875 333 301.875 333C305.875 333 310.375 331.9 315.375 329.7C320.375 327.5 325.175 324.9 329.775 321.9C334.375 318.7 338.075 315.8 340.875 313.2ZM396.375 332.4C396.375 333.8 395.675 335.5 394.275 337.5C393.075 339.3 391.975 340.7 390.975 341.7C388.375 344.1 385.375 345.8 381.975 346.8C378.575 347.6 375.175 348 371.775 348C363.575 348 357.275 346 352.875 342C348.475 338 345.175 332.3 342.975 324.9C335.575 331.5 327.275 337 318.075 341.4C309.075 345.8 299.475 348 289.275 348C281.475 348 274.275 346.6 267.675 343.8C261.075 340.8 255.675 336.4 251.475 330.6C247.475 324.8 245.475 317.8 245.475 309.6C245.475 301.6 247.475 294.6 251.475 288.6C255.475 282.6 260.575 277.5 266.775 273.3C272.975 269.1 279.375 265.7 285.975 263.1C294.575 259.5 303.375 256.9 312.375 255.3C321.575 253.5 330.675 251.8 339.675 250.2C339.475 244.2 339.175 237.5 338.775 230.1C338.375 222.7 336.775 216.3 333.975 210.9C331.975 206.7 328.875 202.9 324.675 199.5C320.675 195.9 316.175 194.1 311.175 194.1C302.775 194.1 295.875 196.5 290.475 201.3C285.075 206.1 281.575 212.6 279.975 220.8C279.775 222.2 279.675 223.7 279.675 225.3C279.675 226.9 279.475 228.3 279.075 229.5C278.675 230.9 277.475 232 275.475 232.8C273.675 233.6 272.075 234 270.675 234C266.275 234 262.475 232.9 259.275 230.7C256.275 228.3 254.775 224.7 254.775 219.9C254.775 217.3 255.175 215.1 255.975 213.3C257.175 209.9 259.275 206.7 262.275 203.7C265.475 200.5 268.975 197.8 272.775 195.6C276.775 193.2 280.375 191.5 283.575 190.5C287.975 189.1 292.875 188 298.275 187.2C303.675 186.2 308.575 185.7 312.975 185.7C323.575 185.7 333.075 188 341.475 192.6C350.075 197 356.775 203.2 361.575 211.2C366.575 219.2 369.075 228.7 369.075 239.7V249C369.075 260.6 368.975 272.2 368.775 283.8C368.775 295.2 369.075 306.7 369.675 318.3C370.075 322.1 370.875 325.8 372.075 329.4C373.275 332.8 376.275 334.5 381.075 334.5C383.475 334.5 385.775 333.9 387.975 332.7C390.375 331.5 392.475 330.9 394.275 330.9C395.675 330.9 396.375 331.4 396.375 332.4ZM672.059 343.5C672.059 344.9 671.459 346.1 670.259 347.1C669.259 347.9 668.059 348.3 666.659 348.3C664.659 348.3 662.659 348.2 660.659 348C658.859 348 656.859 347.9 654.659 347.7C650.859 347.5 647.159 347.4 643.559 347.4C639.959 347.4 636.259 347.4 632.459 347.4C626.459 347.4 620.459 347.6 614.459 348C608.659 348.2 602.859 348.3 597.059 348.3C596.259 348.3 595.359 347.8 594.359 346.8C593.559 345.8 593.159 344.9 593.159 344.1C593.159 341.9 594.159 340.6 596.159 340.2C598.359 339.6 600.759 339.4 603.359 339.6C605.959 339.8 607.959 339.9 609.359 339.9C614.559 339.9 617.159 337.3 617.159 332.1C617.159 319.3 617.259 306.6 617.459 294C617.659 281.2 617.759 268.4 617.759 255.6C617.759 251.6 617.659 246.5 617.459 240.3C617.259 233.9 616.859 227.7 616.259 221.7C615.659 215.5 614.559 210.7 612.959 207.3C611.359 203.3 608.759 200.5 605.159 198.9C601.559 197.1 597.659 196.2 593.459 196.2C589.259 196.2 584.659 197.5 579.659 200.1C574.659 202.7 569.759 205.8 564.959 209.4C560.359 213 556.559 216.2 553.559 219C553.959 221.6 554.159 224.4 554.159 227.4C554.159 230.2 554.159 233 554.159 235.8C554.159 241.6 554.159 247.5 554.159 253.5C554.359 259.3 554.459 265.1 554.459 270.9C554.459 281.1 554.359 291.3 554.159 301.5C554.159 311.7 554.159 321.9 554.159 332.1C554.159 334.7 555.259 336.7 557.459 338.1C559.859 339.3 562.259 339.9 564.659 339.9C566.259 339.9 567.759 339.8 569.159 339.6C570.759 339.4 572.359 339.3 573.959 339.3C574.959 339.3 575.859 339.8 576.659 340.8C577.459 341.8 577.859 342.7 577.859 343.5C577.859 344.9 577.259 346.1 576.059 347.1C575.059 347.9 573.859 348.3 572.459 348.3C570.459 348.3 568.459 348.2 566.459 348C564.659 348 562.659 347.9 560.459 347.7C556.659 347.5 552.859 347.4 549.059 347.4C545.459 347.4 541.859 347.4 538.259 347.4C532.459 347.4 526.659 347.6 520.859 348C515.259 348.2 509.559 348.3 503.759 348.3C502.959 348.3 502.059 347.8 501.059 346.8C500.259 345.8 499.859 344.9 499.859 344.1C499.859 341.7 500.959 340.3 503.159 339.9C505.159 339.5 507.159 339.4 509.159 339.6C511.359 339.8 513.459 339.9 515.459 339.9C520.659 339.9 523.259 337.3 523.259 332.1C523.259 318.7 523.259 305.4 523.259 292.2C523.459 278.8 523.559 265.4 523.559 252C523.559 248 523.459 243.2 523.259 237.6C523.259 232 522.859 226.4 522.059 220.8C521.459 215.2 520.359 210.7 518.759 207.3C517.359 204.1 515.159 201.6 512.159 199.8C509.159 197.8 505.859 196.8 502.259 196.8C499.659 196.8 496.959 197.1 494.159 197.7C490.959 198.5 487.159 200.3 482.759 203.1C478.559 205.9 474.459 209 470.459 212.4C466.459 215.6 463.259 218.5 460.859 221.1C460.859 239.5 460.859 258 460.859 276.6C460.859 295.2 460.859 313.7 460.859 332.1C460.859 334.7 461.859 336.7 463.859 338.1C465.859 339.3 467.959 339.9 470.159 339.9C471.759 339.9 473.259 339.8 474.659 339.6C476.059 339.4 477.459 339.3 478.859 339.3C479.859 339.3 480.759 339.8 481.559 340.8C482.359 341.8 482.759 342.7 482.759 343.5C482.759 344.9 482.159 346.1 480.959 347.1C479.959 347.9 478.759 348.3 477.359 348.3C475.559 348.3 473.759 348.2 471.959 348C470.159 348 468.259 347.9 466.259 347.7C462.659 347.5 459.059 347.4 455.459 347.4C451.859 347.4 448.259 347.4 444.659 347.4C438.859 347.4 432.959 347.6 426.959 348C420.959 348.2 414.959 348.3 408.959 348.3C407.959 348.3 407.059 347.8 406.259 346.8C405.459 345.8 405.059 344.9 405.059 344.1C405.059 341.7 406.159 340.3 408.359 339.9C410.559 339.5 412.759 339.4 414.959 339.6C417.359 339.8 419.659 339.9 421.859 339.9C427.259 339.9 429.959 337.3 429.959 332.1C429.959 311.9 429.859 291.7 429.659 271.5C429.659 251.1 429.659 230.8 429.659 210.6C429.659 207.8 429.259 205.3 428.459 203.1C427.659 200.7 425.559 199.5 422.159 199.5C419.559 199.5 417.059 199.8 414.659 200.4C412.259 201 409.759 201.3 407.159 201.3C404.159 201.3 402.659 199.8 402.659 196.8C402.659 195.2 403.659 194.1 405.659 193.5C406.659 193.1 407.759 192.9 408.959 192.9C410.359 192.9 411.659 192.8 412.859 192.6C415.659 192.2 418.359 191.8 420.959 191.4C423.759 190.8 426.459 190.3 429.059 189.9C432.659 189.3 436.259 188.5 439.859 187.5C443.459 186.5 447.159 186 450.959 186C453.359 186 455.059 186.7 456.059 188.1C457.459 190.3 458.359 193.6 458.759 198C459.159 202.2 459.459 205.6 459.659 208.2C465.859 203 472.859 197.9 480.659 192.9C488.659 187.7 496.859 185.1 505.259 185.1C515.259 185.1 524.059 186.6 531.659 189.6C539.259 192.6 545.559 198.7 550.559 207.9C557.159 202.1 564.659 196.8 573.059 192C581.459 187 590.159 184.5 599.159 184.5C612.559 184.5 622.859 186.3 630.059 189.9C637.259 193.5 642.259 199.2 645.059 207C648.059 214.8 649.559 225.1 649.559 237.9C649.559 253.5 649.359 269.2 648.959 285C648.759 300.6 648.659 316.2 648.659 331.8C648.659 334.8 649.559 336.8 651.359 337.8C653.359 338.8 655.659 339.3 658.259 339.3C661.059 339.3 663.459 339.3 665.459 339.3C667.059 339.3 668.559 339.5 669.959 339.9C671.359 340.3 672.059 341.5 672.059 343.5ZM792.635 241.8C792.635 236.2 792.335 230.6 791.735 225C791.335 219.4 790.135 214.3 788.135 209.7C786.335 204.9 783.435 201.1 779.435 198.3C775.435 195.3 769.835 193.8 762.635 193.8C753.635 193.8 746.335 196.3 740.735 201.3C735.335 206.3 731.135 212.6 728.135 220.2C725.135 227.6 722.935 235 721.535 242.4C725.935 242.6 730.335 242.8 734.735 243C739.335 243 743.835 243 748.235 243C755.635 243 763.035 242.9 770.435 242.7C777.835 242.3 785.235 242 792.635 241.8ZM831.035 311.4C831.035 312 830.835 312.7 830.435 313.5C829.435 315.3 827.635 317.6 825.035 320.4C822.435 323 819.635 325.5 816.635 327.9C813.835 330.3 811.535 332.2 809.735 333.6C802.935 338.4 795.435 342.2 787.235 345C779.035 347.6 770.735 348.9 762.335 348.9C755.335 348.9 747.735 347.8 739.535 345.6C731.535 343.2 724.535 340.1 718.535 336.3C707.335 328.9 699.135 319.3 693.935 307.5C688.935 295.5 686.435 283 686.435 270C686.435 255.2 689.335 241.4 695.135 228.6C700.935 215.8 710.235 205.4 723.035 197.4C728.835 193.8 735.435 190.9 742.835 188.7C750.235 186.5 757.335 185.4 764.135 185.4C776.135 185.4 786.635 187.8 795.635 192.6C804.835 197.4 812.035 204.3 817.235 213.3C822.435 222.1 825.035 232.6 825.035 244.8C825.035 248.6 824.035 251 822.035 252C820.235 252.8 817.635 253.2 814.235 253.2C810.235 253.2 806.235 253.1 802.235 252.9C798.235 252.7 794.235 252.5 790.235 252.3C784.835 252.1 779.435 252 774.035 252C768.835 251.8 763.635 251.7 758.435 251.7C752.035 251.7 745.535 251.7 738.935 251.7C732.535 251.7 726.135 251.8 719.735 252C719.535 255.2 719.335 258.3 719.135 261.3C718.935 264.3 718.835 267.4 718.835 270.6C718.835 277.6 719.635 285 721.235 292.8C722.835 300.4 725.335 307.5 728.735 314.1C732.335 320.7 737.035 326.1 742.835 330.3C748.635 334.5 755.835 336.6 764.435 336.6C773.235 336.6 781.535 335.3 789.335 332.7C797.135 330.1 804.335 325.9 810.935 320.1C812.935 318.3 814.635 316.4 816.035 314.4C817.635 312.4 819.235 310.4 820.835 308.4C822.035 306.8 823.635 306 825.635 306C827.035 306 828.235 306.6 829.235 307.8C830.435 308.8 831.035 310 831.035 311.4Z" fill="#F4F4F5"/>
<path d="M942.75 275.1C942.75 271 942.45 266.8 941.85 262.5C941.25 258.2 940.1 254.2 938.4 250.5C936.7 246.8 934.25 243.85 931.05 241.65C927.95 239.35 923.8 238.2 918.6 238.2C913.8 238.2 909.85 239.4 906.75 241.8C903.75 244.2 901.45 247.35 899.85 251.25C898.25 255.05 897.1 259.1 896.4 263.4C895.8 267.6 895.5 271.6 895.5 275.4C895.5 279.6 895.8 283.8 896.4 288C897.1 292.1 898.3 295.9 900 299.4C901.7 302.9 904.15 305.7 907.35 307.8C910.55 309.9 914.7 310.95 919.8 310.95C924.8 310.95 928.8 309.85 931.8 307.65C934.9 305.45 937.2 302.55 938.7 298.95C940.3 295.35 941.35 291.45 941.85 287.25C942.45 283.05 942.75 279 942.75 275.1ZM959.85 275.7C959.85 283.3 958 290.1 954.3 296.1C950.7 302.1 945.8 306.85 939.6 310.35C933.5 313.75 926.65 315.45 919.05 315.45C911.55 315.45 904.8 313.75 898.8 310.35C892.8 306.85 888 302.1 884.4 296.1C880.9 290.1 879.15 283.4 879.15 276C879.15 268.3 880.9 261.25 884.4 254.85C887.9 248.45 892.7 243.35 898.8 239.55C904.9 235.65 911.85 233.7 919.65 233.7C928.25 233.7 935.5 235.45 941.4 238.95C947.4 242.45 951.95 247.35 955.05 253.65C958.25 259.95 959.85 267.3 959.85 275.7ZM1027.97 219.45C1027.97 220.45 1027.52 221.3 1026.62 222C1025.82 222.7 1024.87 223.05 1023.77 223.05C1022.97 223.05 1022.22 222.95 1021.52 222.75C1020.92 222.45 1020.47 221.9 1020.17 221.1C1019.57 219.7 1018.97 218.3 1018.37 216.9C1017.87 215.5 1017.37 214.1 1016.87 212.7C1016.17 210.9 1015.17 209.4 1013.87 208.2C1012.57 206.9 1010.87 206.25 1008.77 206.25C1005.27 206.25 1002.67 207.6 1000.97 210.3C999.268 212.9 998.418 215.8 998.418 219C998.418 222.4 998.418 225.8 998.418 229.2C998.518 232.5 998.618 235.8 998.718 239.1L1001.42 239.25C1004.02 239.25 1006.62 239.2 1009.22 239.1C1011.82 239 1014.42 238.95 1017.02 238.95C1017.82 238.95 1018.52 239.25 1019.12 239.85C1019.82 240.35 1020.17 241 1020.17 241.8C1020.17 243.8 1019.12 244.8 1017.02 244.8C1015.12 244.9 1013.22 244.9 1011.32 244.8C1009.52 244.7 1007.67 244.65 1005.77 244.65H999.318V302.7C999.318 304.6 999.718 306.45 1000.52 308.25C1001.42 310.05 1002.97 310.95 1005.17 310.95C1006.37 310.95 1007.52 310.9 1008.62 310.8C1009.72 310.7 1010.82 310.65 1011.92 310.65C1012.62 310.65 1013.12 310.95 1013.42 311.55C1013.82 312.05 1014.02 312.55 1014.02 313.05C1014.02 314.35 1013.47 315.05 1012.37 315.15C1011.37 315.25 1010.47 315.3 1009.67 315.3C1006.27 315.3 1002.87 315.2 999.468 315C996.168 314.9 992.818 314.85 989.418 314.85C987.818 314.85 986.218 314.85 984.618 314.85C983.118 314.85 981.568 314.9 979.968 315C978.668 315 977.418 315.05 976.218 315.15C975.018 315.35 973.768 315.45 972.468 315.45C971.768 315.45 971.068 315.3 970.368 315C969.668 314.8 969.318 314.2 969.318 313.2C969.318 312 969.818 311.3 970.818 311.1C971.918 310.8 973.118 310.7 974.418 310.8C975.718 310.9 976.718 310.95 977.418 310.95C980.018 310.95 981.668 310.15 982.368 308.55C983.068 306.85 983.418 304.9 983.418 302.7V244.5H974.568C972.968 244.5 972.068 244.85 971.868 245.55C971.668 246.25 971.018 246.6 969.918 246.6C968.818 246.6 968.268 246.1 968.268 245.1C968.268 244.7 968.368 243.9 968.568 242.7C968.868 241.5 969.068 240.75 969.168 240.45C969.568 239.55 970.518 239.15 972.018 239.25C973.618 239.35 974.868 239.4 975.768 239.4H983.118C983.018 237.4 982.968 235.4 982.968 233.4C982.968 231.3 982.968 229.25 982.968 227.25C982.968 217.85 985.468 211.35 990.468 207.75C995.468 204.15 1002.32 202.35 1011.02 202.35C1013.92 202.35 1016.62 202.9 1019.12 204C1021.62 205 1024.27 205.5 1027.07 205.5C1027.17 207.8 1027.32 210.15 1027.52 212.55C1027.82 214.85 1027.97 217.15 1027.97 219.45Z" fill="#F4F4F5"/>
<path d="M1218.6 290.4C1218.6 301.8 1215.9 311.4 1210.5 319.2C1205.3 326.8 1198.4 332.9 1189.8 337.5C1181.2 342.1 1171.8 345.4 1161.6 347.4C1151.6 349.2 1141.9 350.1 1132.5 350.1C1126.5 350.1 1120.5 349.6 1114.5 348.6C1108.5 347.6 1102.6 346.1 1096.8 344.1C1092.4 342.5 1088 340.7 1083.6 338.7C1079.4 336.5 1075 335 1070.4 334.2C1069.6 328.6 1068.7 323.1 1067.7 317.7C1066.7 312.1 1065.7 306.5 1064.7 300.9C1064.5 299.3 1064.2 297.8 1063.8 296.4C1063.6 295 1063.5 293.6 1063.5 292.2C1063.5 288.8 1064.2 286.4 1065.6 285C1067 283.6 1069.5 282.9 1073.1 282.9C1076.1 282.9 1078.2 283.5 1079.4 284.7C1080.6 285.9 1081.5 287.9 1082.1 290.7C1084.5 300.7 1087.3 309.4 1090.5 316.8C1093.9 324.2 1098.8 329.9 1105.2 333.9C1111.6 337.7 1120.6 339.6 1132.2 339.6C1147 339.6 1159.2 336.1 1168.8 329.1C1178.6 322.1 1183.5 310.6 1183.5 294.6C1183.5 287 1181.6 280.5 1177.8 275.1C1174 269.5 1169.2 264.7 1163.4 260.7C1157.8 256.7 1152 253.3 1146 250.5C1139.8 247.1 1133.5 243.9 1127.1 240.9C1120.9 237.9 1114.6 234.8 1108.2 231.6C1102 228.6 1095.6 224.7 1089 219.9C1082.4 214.9 1076.8 209.2 1072.2 202.8C1067.8 196.2 1065.6 189.1 1065.6 181.5C1065.6 168.3 1069.1 157.5 1076.1 149.1C1083.1 140.7 1092 134.5 1102.8 130.5C1113.8 126.5 1125.1 124.5 1136.7 124.5C1144.3 124.5 1151.3 125.3 1157.7 126.9C1164.3 128.5 1171.1 130.6 1178.1 133.2C1181.9 134.6 1185.7 135.6 1189.5 136.2C1193.3 136.8 1197.1 137.3 1200.9 137.7C1201.5 143.7 1202.1 149.8 1202.7 156C1203.3 162 1204.2 167.9 1205.4 173.7C1205.6 174.5 1205.8 175.3 1206 176.1C1206.2 176.9 1206.3 177.8 1206.3 178.8C1206.3 182.2 1205 184.4 1202.4 185.4C1199.8 186.4 1197.1 186.9 1194.3 186.9C1193.5 186.9 1192.4 186.8 1191 186.6C1189.8 186.4 1188.9 185.9 1188.3 185.1C1187.9 184.7 1187.6 184 1187.4 183C1187.2 182 1187.1 181.2 1187.1 180.6C1184.5 165.2 1179.2 153.4 1171.2 145.2C1163.2 137 1151 132.9 1134.6 132.9C1122.6 132.9 1113.3 136.2 1106.7 142.8C1100.1 149.4 1096.8 158.7 1096.8 170.7C1096.8 178.9 1099 185.9 1103.4 191.7C1107.8 197.5 1113.6 202.5 1120.8 206.7C1128 210.9 1135.9 214.9 1144.5 218.7C1153.3 222.3 1162 226.1 1170.6 230.1C1179.4 234.1 1187.4 238.8 1194.6 244.2C1201.8 249.4 1207.6 255.8 1212 263.4C1216.4 270.8 1218.6 279.8 1218.6 290.4ZM1353.83 262.5C1353.83 258.3 1353.83 254.1 1353.83 249.9C1353.83 245.5 1353.73 241.2 1353.53 237C1353.13 225.4 1349.53 215.5 1342.73 207.3C1336.13 199.1 1326.63 195 1314.23 195C1305.23 195 1297.93 197.5 1292.33 202.5C1286.73 207.5 1282.43 213.9 1279.43 221.7C1276.43 229.3 1274.33 237.3 1273.13 245.7C1272.13 254.1 1271.63 261.8 1271.63 268.8C1271.63 275.2 1272.23 282.2 1273.43 289.8C1274.83 297.4 1277.03 304.6 1280.03 311.4C1283.23 318 1287.53 323.5 1292.93 327.9C1298.33 332.1 1305.13 334.2 1313.33 334.2C1319.93 334.2 1326.23 332.8 1332.23 330C1338.23 327 1343.23 322.9 1347.23 317.7C1351.23 312.5 1353.33 306.4 1353.53 299.4C1353.93 293.2 1354.03 287.1 1353.83 281.1C1353.83 274.9 1353.83 268.7 1353.83 262.5ZM1410.53 400.8C1410.53 402 1409.93 403.1 1408.73 404.1C1407.73 405.1 1406.63 405.6 1405.43 405.6C1399.23 405.6 1393.13 405.4 1387.13 405C1381.13 404.6 1375.03 404.4 1368.83 404.4C1362.63 404.4 1356.33 404.6 1349.93 405C1343.73 405.4 1337.43 405.6 1331.03 405.6C1330.03 405.6 1329.13 405 1328.33 403.8C1327.53 402.8 1327.13 401.9 1327.13 401.1C1327.13 398.9 1328.13 397.6 1330.13 397.2C1331.73 396.8 1334.13 396.7 1337.33 396.9C1340.53 397.1 1343.03 397.2 1344.83 397.2C1347.23 397.2 1349.33 396.5 1351.13 395.1C1352.93 393.9 1353.83 392 1353.83 389.4C1353.83 380.4 1353.83 371.4 1353.83 362.4C1354.03 353.6 1354.13 344.8 1354.13 336V328.5C1349.13 332.9 1342.83 336.7 1335.23 339.9C1327.63 343.1 1320.33 344.7 1313.33 344.7C1306.73 344.7 1300.13 344.1 1293.53 342.9C1287.13 341.5 1281.03 339 1275.23 335.4C1263.83 328.4 1255.03 319.2 1248.83 307.8C1242.63 296.4 1239.53 284.1 1239.53 270.9C1239.53 254.5 1242.53 240 1248.53 227.4C1254.73 214.8 1263.63 205 1275.23 198C1287.03 190.8 1301.33 187.2 1318.13 187.2C1325.73 187.2 1333.53 188.6 1341.53 191.4C1349.73 194.2 1356.33 198.7 1361.33 204.9C1362.53 202.9 1364.13 200.5 1366.13 197.7C1368.33 194.9 1370.63 192.4 1373.03 190.2C1375.63 188 1378.03 186.9 1380.23 186.9C1382.43 186.9 1383.83 187.3 1384.43 188.1C1385.23 188.9 1385.63 190.4 1385.63 192.6C1385.63 196.4 1385.43 200.2 1385.03 204C1384.63 207.8 1384.43 211.6 1384.43 215.4C1384.43 244.4 1384.53 273.4 1384.73 302.4C1384.93 331.4 1385.03 360.4 1385.03 389.4C1385.03 392 1386.13 393.9 1388.33 395.1C1390.53 396.5 1392.83 397.2 1395.23 397.2C1397.23 397.2 1399.13 397 1400.93 396.6C1402.73 396.4 1404.63 396.3 1406.63 396.3C1407.63 396.3 1408.53 396.8 1409.33 397.8C1410.13 398.8 1410.53 399.8 1410.53 400.8ZM1597.84 338.7C1597.84 341.3 1595.94 343.3 1592.14 344.7C1588.54 346.1 1584.54 347.1 1580.14 347.7C1575.94 348.1 1572.84 348.3 1570.84 348.3C1564.04 348.3 1558.54 345.9 1554.34 341.1C1550.34 336.3 1547.24 331 1545.04 325.2C1538.24 333.2 1529.64 339.2 1519.24 343.2C1508.84 347.2 1498.44 349.2 1488.04 349.2C1469.64 349.2 1456.74 344.4 1449.34 334.8C1442.14 325.2 1438.54 311.7 1438.54 294.3C1438.54 279.5 1438.54 264.7 1438.54 249.9C1438.74 234.9 1438.94 219.9 1439.14 204.9C1439.14 202.5 1438.64 200.6 1437.64 199.2C1436.84 197.6 1435.04 196.8 1432.24 196.8C1430.64 196.8 1429.04 196.9 1427.44 197.1C1425.84 197.3 1424.24 197.4 1422.64 197.4C1421.84 197.4 1420.94 197 1419.94 196.2C1419.14 195.4 1418.74 194.7 1418.74 194.1C1418.74 192.3 1419.14 191.2 1419.94 190.8C1420.74 190.4 1421.94 190.1 1423.54 189.9C1425.54 189.5 1427.54 189.3 1429.54 189.3C1431.54 189.3 1433.54 189.2 1435.54 189C1439.14 188.6 1442.64 188.3 1446.04 188.1C1449.64 187.9 1453.24 187.7 1456.84 187.5C1458.44 187.3 1460.04 187.1 1461.64 186.9C1463.24 186.7 1464.84 186.6 1466.44 186.6C1467.44 186.6 1468.34 187.5 1469.14 189.3C1469.94 190.9 1470.34 192.2 1470.34 193.2C1470.34 210.4 1470.14 227.7 1469.74 245.1C1469.34 262.3 1469.14 279.5 1469.14 296.7C1469.14 300.5 1469.24 304.5 1469.44 308.7C1469.64 312.9 1470.44 316.8 1471.84 320.4C1474.04 325.8 1477.94 329.6 1483.54 331.8C1489.34 334 1494.94 335.1 1500.34 335.1C1506.14 335.1 1512.04 334 1518.04 331.8C1524.24 329.4 1529.54 326 1533.94 321.6C1538.34 317.2 1540.84 311.8 1541.44 305.4C1541.84 301.6 1542.04 297.8 1542.04 294C1542.04 290 1542.04 286.1 1542.04 282.3V204C1542.04 202 1541.34 200.4 1539.94 199.2C1538.74 198 1537.14 197.4 1535.14 197.4C1533.14 197.4 1531.14 197.5 1529.14 197.7C1527.34 197.9 1525.44 198 1523.44 198C1520.44 198 1518.94 196.7 1518.94 194.1C1518.94 192.7 1519.24 191.8 1519.84 191.4C1520.64 190.8 1521.64 190.4 1522.84 190.2C1525.24 189.8 1527.74 189.6 1530.34 189.6C1532.94 189.4 1535.54 189.2 1538.14 189C1542.54 188.6 1547.64 188 1553.44 187.2C1559.24 186.4 1564.14 186 1568.14 186C1569.14 186 1570.14 186.6 1571.14 187.8C1572.34 189 1572.84 190.1 1572.64 191.1C1572.44 212.5 1572.24 234 1572.04 255.6C1571.84 277.2 1571.74 298.8 1571.74 320.4C1571.74 324.8 1572.74 328.6 1574.74 331.8C1576.74 335 1580.24 336.6 1585.24 336.6C1586.84 336.6 1588.44 336.4 1590.04 336C1591.64 335.4 1593.24 335.1 1594.84 335.1C1596.84 335.1 1597.84 336.3 1597.84 338.7ZM1695.92 343.5C1695.92 344.7 1695.32 345.8 1694.12 346.8C1693.12 347.8 1692.02 348.3 1690.82 348.3C1683.82 348.3 1676.82 348.2 1669.82 348C1662.82 347.6 1655.82 347.4 1648.82 347.4C1643.02 347.4 1637.12 347.6 1631.12 348C1625.32 348.2 1619.52 348.3 1613.72 348.3C1612.72 348.3 1611.82 347.8 1611.02 346.8C1610.22 345.6 1609.82 344.6 1609.82 343.8C1609.82 341.4 1610.92 340.1 1613.12 339.9C1615.52 339.5 1618.02 339.4 1620.62 339.6C1623.42 339.8 1626.02 339.9 1628.42 339.9C1631.02 339.9 1633.22 339.3 1635.02 338.1C1636.82 336.7 1637.72 334.7 1637.72 332.1V293.1L1638.02 210.9C1638.02 208.1 1637.52 205.8 1636.52 204C1635.72 202 1633.62 201 1630.22 201C1627.62 201 1624.92 201.2 1622.12 201.6C1619.52 202 1616.82 202.2 1614.02 202.2C1613.22 202.2 1612.22 202 1611.02 201.6C1609.82 201 1609.22 200.2 1609.22 199.2C1609.22 196.6 1610.22 195.1 1612.22 194.7C1614.82 193.9 1617.42 193.4 1620.02 193.2C1622.62 192.8 1625.22 192.4 1627.82 192C1633.42 191 1638.92 189.9 1644.32 188.7C1649.92 187.3 1655.52 186 1661.12 184.8C1662.32 184.4 1663.42 184.2 1664.42 184.2C1668.02 184.2 1669.82 185.7 1669.82 188.7C1669.82 212.5 1669.72 236.4 1669.52 260.4C1669.32 284.2 1669.22 308.1 1669.22 332.1C1669.22 335.7 1670.92 337.9 1674.32 338.7C1677.72 339.3 1680.72 339.6 1683.32 339.6C1684.92 339.6 1686.42 339.6 1687.82 339.6C1689.42 339.4 1690.92 339.3 1692.32 339.3C1693.12 339.3 1693.92 339.8 1694.72 340.8C1695.52 341.8 1695.92 342.7 1695.92 343.5ZM1671.32 135.6C1671.32 141.2 1669.32 145.7 1665.32 149.1C1661.32 152.5 1656.62 154.2 1651.22 154.2C1645.82 154.2 1641.12 152.5 1637.12 149.1C1633.12 145.7 1631.12 141.2 1631.12 135.6C1631.12 130 1633.12 125.5 1637.12 122.1C1641.12 118.7 1645.82 117 1651.22 117C1656.62 117 1661.32 118.7 1665.32 122.1C1669.32 125.5 1671.32 130 1671.32 135.6ZM1824.85 236.1C1824.85 229.7 1823.65 223.6 1821.25 217.8C1818.85 212 1815.25 207.2 1810.45 203.4C1805.85 199.6 1800.05 197.7 1793.05 197.7C1783.85 197.7 1776.15 200.1 1769.95 204.9C1763.95 209.5 1759.25 215.6 1755.85 223.2C1752.45 230.6 1750.05 238.5 1748.65 246.9C1747.25 255.3 1746.55 263.2 1746.55 270.6C1746.55 277.2 1747.15 284.3 1748.35 291.9C1749.55 299.3 1751.65 306.4 1754.65 313.2C1757.85 320 1762.05 325.5 1767.25 329.7C1772.65 333.9 1779.55 336 1787.95 336C1791.95 336 1796.05 334.8 1800.25 332.4C1804.65 330 1808.25 327.4 1811.05 324.6C1815.45 320.4 1818.85 315.7 1821.25 310.5C1823.65 305.1 1824.85 299.4 1824.85 293.4V236.1ZM1882.75 336.3C1882.75 338.9 1880.85 341.1 1877.05 342.9C1873.25 344.7 1869.05 346.1 1864.45 347.1C1860.05 348.1 1856.85 348.6 1854.85 348.6C1847.05 348.6 1841.15 346 1837.15 340.8C1833.15 335.6 1829.85 329.8 1827.25 323.4C1822.85 330.2 1816.95 335.9 1809.55 340.5C1802.35 344.9 1794.65 347.1 1786.45 347.1C1780.25 347.1 1773.75 346.6 1766.95 345.6C1760.35 344.6 1754.45 342.5 1749.25 339.3C1737.85 332.1 1729.15 322.4 1723.15 310.2C1717.35 298 1714.45 285.3 1714.45 272.1C1714.45 256.1 1717.45 241.8 1723.45 229.2C1729.45 216.4 1738.25 206.3 1749.85 198.9C1761.65 191.5 1775.85 187.8 1792.45 187.8C1797.05 187.8 1802.55 189 1808.95 191.4C1815.35 193.6 1820.45 196.1 1824.25 198.9V144C1824.25 138 1822.95 134.6 1820.35 133.8C1817.75 133 1813.85 132.6 1808.65 132.6C1806.65 132.6 1804.75 132.7 1802.95 132.9C1801.15 132.9 1799.25 132.9 1797.25 132.9C1796.45 132.9 1795.35 132.6 1793.95 132C1792.75 131.2 1792.15 130.3 1792.15 129.3C1792.15 127.7 1792.75 126.7 1793.95 126.3C1795.15 125.7 1796.35 125.3 1797.55 125.1C1801.95 124.1 1806.25 123.4 1810.45 123C1814.85 122.4 1819.15 121.8 1823.35 121.2C1827.75 120.4 1832.05 119.6 1836.25 118.8C1840.45 117.8 1844.65 116.7 1848.85 115.5C1849.45 115.3 1850.25 115.2 1851.25 115.2C1854.25 115.2 1855.75 116.5 1855.75 119.1C1855.75 142.9 1855.65 166.8 1855.45 190.8C1855.25 214.6 1855.15 238.4 1855.15 262.2V312.6C1855.15 315.8 1855.45 319.2 1856.05 322.8C1856.85 326.2 1858.25 329.1 1860.25 331.5C1862.45 333.9 1865.55 335.1 1869.55 335.1C1871.55 335.1 1873.45 334.8 1875.25 334.2C1877.05 333.4 1878.65 333 1880.05 333C1881.05 333 1881.75 333.4 1882.15 334.2C1882.55 334.8 1882.75 335.5 1882.75 336.3ZM2009.18 303.6C2009.18 312.6 2007.18 320 2003.18 325.8C1999.18 331.6 1993.88 336.1 1987.28 339.3C1980.88 342.5 1973.88 344.8 1966.28 346.2C1958.68 347.4 1951.18 348 1943.78 348C1939.98 348 1936.18 347.7 1932.38 347.1C1928.78 346.5 1925.18 345.9 1921.58 345.3C1918.58 344.7 1915.48 344.3 1912.28 344.1C1909.28 343.9 1906.38 343.4 1903.58 342.6C1902.18 337.8 1900.88 333 1899.68 328.2C1898.68 323.2 1897.38 318.4 1895.78 313.8C1895.58 312.8 1894.98 311.1 1893.98 308.7C1893.18 306.1 1892.78 304.4 1892.78 303.6C1892.78 301.6 1893.68 300.3 1895.48 299.7C1897.48 299.1 1899.18 298.8 1900.58 298.8C1901.58 298.8 1902.48 299.2 1903.28 300C1904.28 300.8 1904.98 301.6 1905.38 302.4C1906.38 303.8 1907.18 305.3 1907.78 306.9C1908.38 308.5 1909.08 310.1 1909.88 311.7C1911.28 314.1 1912.58 316.5 1913.78 318.9C1915.18 321.1 1916.88 323.1 1918.88 324.9C1922.48 328.5 1926.68 331.5 1931.48 333.9C1936.48 336.1 1941.48 337.2 1946.48 337.2C1955.88 337.2 1963.58 335.4 1969.58 331.8C1975.78 328 1978.88 320.9 1978.88 310.5C1978.88 304.3 1976.88 299.1 1972.88 294.9C1969.08 290.5 1964.08 286.7 1957.88 283.5C1951.68 280.1 1945.08 276.9 1938.08 273.9C1931.28 270.7 1924.78 267.2 1918.58 263.4C1912.38 259.4 1907.28 254.7 1903.28 249.3C1899.48 243.7 1897.58 236.9 1897.58 228.9C1897.58 219.1 1900.18 211 1905.38 204.6C1910.58 198.2 1917.18 193.5 1925.18 190.5C1933.38 187.3 1941.78 185.7 1950.38 185.7C1956.18 185.7 1961.38 186.4 1965.98 187.8C1970.78 189 1975.88 190.6 1981.28 192.6C1983.68 193.4 1986.48 193.8 1989.68 193.8C1990.68 193.8 1991.68 193.8 1992.68 193.8C1993.88 193.8 1994.98 193.7 1995.98 193.5C1996.58 198.7 1997.28 204.1 1998.08 209.7C1999.08 215.1 1999.58 220.4 1999.58 225.6C1999.58 227.6 1998.98 229.4 1997.78 231C1996.58 232.4 1994.88 233.1 1992.68 233.1C1989.28 233.1 1986.98 231.7 1985.78 228.9C1984.98 227.1 1984.28 225.2 1983.68 223.2C1983.28 221.2 1982.78 219.2 1982.18 217.2C1979.78 210.6 1975.48 205.2 1969.28 201C1963.08 196.8 1956.48 194.7 1949.48 194.7C1940.08 194.7 1933.48 197.6 1929.68 203.4C1925.88 209 1923.98 216.1 1923.98 224.7C1923.98 227.9 1924.68 230.8 1926.08 233.4C1927.48 236 1929.28 238.4 1931.48 240.6C1933.48 242.6 1935.68 244.3 1938.08 245.7C1940.48 247.1 1942.98 248.4 1945.58 249.6C1951.38 252.2 1957.88 255.1 1965.08 258.3C1972.48 261.3 1979.48 264.8 1986.08 268.8C1992.88 272.8 1998.38 277.7 2002.58 283.5C2006.98 289.1 2009.18 295.8 2009.18 303.6Z" fill="#EC4899"/>
<line x1="1171" y1="132.5" x2="1603" y2="132.5" stroke="#EC4899" stroke-width="15"/>
<line x1="1696" y1="132.5" x2="1840" y2="132.5" stroke="#EC4899" stroke-width="15"/>
<line x1="1155" y1="130" x2="1222" y2="130" stroke="#EC4899" stroke-width="10"/>
<line x1="1125" y1="127.5" x2="1192" y2="127.5" stroke="#EC4899" stroke-width="5"/>
</svg>
